<svg width="256" height="256" viewBox="0 0 256 256" fill="none" xmlns="http://www.w3.org/2000/svg">
<g clip-path="url(#clip0_50_2)">
<path opacity="0.96" d="M173.184 -15.9657L157.894 5.87759L170.044 29.6933C170.683 30.9374 170.939 32.3422 170.781 33.7322C170.623 35.1221 170.058 36.4355 169.155 37.5081C168.253 38.5807 167.054 39.365 165.708 39.7628C164.362 40.1607 162.929 40.1545 161.589 39.7449L136.131 31.8911L117.388 50.7655C116.396 51.7566 115.134 52.4348 113.758 52.7154C112.383 52.9959 110.957 52.8664 109.656 52.3429C108.356 51.8194 107.24 50.9252 106.448 49.7722C105.656 48.6191 105.223 47.2583 105.203 45.8599L104.748 19.156L80.9815 7.02302C79.7274 6.39303 78.6885 5.40767 77.995 4.19051C77.3015 2.97336 76.9843 1.57859 77.0832 0.181108C77.1821 -1.21637 77.6927 -2.55434 78.551 -3.66503C79.4092 -4.77572 80.5769 -5.60967 81.9076 -6.06232L107.093 -14.7009L111.187 -41.0824C111.399 -42.466 112.017 -43.7568 112.963 -44.7923C113.91 -45.8277 115.141 -46.5615 116.504 -46.9012C117.866 -47.2409 119.299 -47.1714 120.62 -46.7013C121.942 -46.2313 123.094 -45.3818 123.931 -44.2598L139.961 -22.8959L166.245 -27.09C167.633 -27.3151 169.055 -27.1269 170.334 -26.5492C171.613 -25.9714 172.692 -25.0298 173.436 -23.8423C174.179 -22.6548 174.554 -21.2744 174.513 -19.8742C174.472 -18.4739 174.017 -17.1161 173.206 -15.9711L173.184 -15.9657Z" fill="white"/>
<path opacity="0.96" d="M173.184 240.034L157.894 261.878L170.044 285.693C170.683 286.937 170.939 288.342 170.781 289.732C170.623 291.122 170.058 292.436 169.155 293.508C168.253 294.581 167.054 295.365 165.708 295.763C164.362 296.161 162.929 296.154 161.589 295.745L136.131 287.891L117.388 306.766C116.396 307.757 115.134 308.435 113.758 308.715C112.383 308.996 110.957 308.866 109.656 308.343C108.356 307.819 107.24 306.925 106.448 305.772C105.656 304.619 105.223 303.258 105.203 301.86L104.748 275.156L80.9815 263.023C79.7274 262.393 78.6885 261.408 77.995 260.191C77.3015 258.973 76.9843 257.579 77.0832 256.181C77.1821 254.784 77.6927 253.446 78.551 252.335C79.4092 251.224 80.5769 250.39 81.9076 249.938L107.093 241.299L111.187 214.918C111.399 213.534 112.017 212.243 112.963 211.208C113.91 210.172 115.141 209.439 116.504 209.099C117.866 208.759 119.299 208.829 120.62 209.299C121.942 209.769 123.094 210.618 123.931 211.74L139.961 233.104L166.245 228.91C167.633 228.685 169.055 228.873 170.334 229.451C171.613 230.029 172.692 230.97 173.436 232.158C174.179 233.345 174.554 234.726 174.513 236.126C174.472 237.526 174.017 238.884 173.206 240.029L173.184 240.034Z" fill="white"/>
<path opacity="0.96" d="M301.184 112.034L285.894 133.878L298.044 157.693C298.683 158.937 298.939 160.342 298.781 161.732C298.623 163.122 298.058 164.436 297.155 165.508C296.253 166.581 295.054 167.365 293.708 167.763C292.362 168.161 290.929 168.154 289.589 167.745L264.131 159.891L245.388 178.766C244.396 179.757 243.134 180.435 241.758 180.715C240.383 180.996 238.957 180.866 237.656 180.343C236.356 179.819 235.24 178.925 234.448 177.772C233.656 176.619 233.223 175.258 233.203 173.86L232.748 147.156L208.982 135.023C207.727 134.393 206.688 133.408 205.995 132.191C205.302 130.973 204.984 129.579 205.083 128.181C205.182 126.784 205.693 125.446 206.551 124.335C207.409 123.224 208.577 122.39 209.908 121.938L235.093 113.299L239.187 86.9176C239.399 85.534 240.017 84.2432 240.963 83.2077C241.91 82.1723 243.141 81.4385 244.504 81.0988C245.866 80.7591 247.299 80.8286 248.62 81.2987C249.942 81.7687 251.094 82.6182 251.931 83.7402L267.961 105.104L294.245 100.91C295.633 100.685 297.055 100.873 298.334 101.451C299.613 102.029 300.692 102.97 301.436 104.158C302.179 105.345 302.554 106.726 302.513 108.126C302.472 109.526 302.017 110.884 301.206 112.029L301.184 112.034Z" fill="white"/>
<path opacity="0.96" d="M45.1843 112.034L29.8941 133.878L42.0437 157.693C42.6826 158.937 42.9391 160.342 42.7811 161.732C42.6231 163.122 42.0576 164.436 41.1553 165.508C40.2531 166.581 39.0541 167.365 37.7082 167.763C36.3624 168.161 34.9295 168.154 33.5886 167.745L8.13069 159.891L-10.6125 178.766C-11.6042 179.757 -12.8665 180.435 -14.2416 180.715C-15.6166 180.996 -17.0435 180.866 -18.3437 180.343C-19.6439 179.819 -20.7598 178.925 -21.5518 177.772C-22.3439 176.619 -22.777 175.258 -22.7969 173.86L-23.2524 147.156L-47.0185 135.023C-48.2726 134.393 -49.3115 133.408 -50.005 132.191C-50.6985 130.973 -51.0157 129.579 -50.9168 128.181C-50.8179 126.784 -50.3073 125.446 -49.449 124.335C-48.5908 123.224 -47.4231 122.39 -46.0924 121.938L-20.9073 113.299L-16.8133 86.9176C-16.601 85.534 -15.9828 84.2432 -15.0366 83.2077C-14.0905 82.1723 -12.8585 81.4385 -11.496 81.0988C-10.1335 80.7591 -8.70133 80.8286 -7.37979 81.2987C-6.05824 81.7687 -4.90644 82.6182 -4.06939 83.7402L11.961 105.104L38.2451 100.91C39.6325 100.685 41.055 100.873 42.3343 101.451C43.6135 102.029 44.6924 102.97 45.4358 104.158C46.1792 105.345 46.554 106.726 46.5131 108.126C46.4722 109.526 46.0175 110.884 45.206 112.029L45.1843 112.034Z" fill="white"/>
</g>
<defs>
<clipPath id="clip0_50_2">
<rect width="256" height="256" fill="white"/>
</clipPath>
</defs>
</svg>
